<svg width="74" height="94" viewBox="0 0 74 94" fill="none" xmlns="http://www.w3.org/2000/svg">
<path d="M0.090909 94V0.909088H36.8182C43.8485 0.909088 49.8485 2.16666 54.8182 4.68182C59.8182 7.16666 63.6212 10.697 66.2273 15.2727C68.8636 19.8182 70.1818 25.1667 70.1818 31.3182C70.1818 37.5 68.8485 42.8182 66.1818 47.2727C63.5152 51.697 59.6515 55.0909 54.5909 57.4545C49.5606 59.8182 43.4697 61 36.3182 61H11.7273V45.1818H33.1364C36.8939 45.1818 40.0152 44.6667 42.5 43.6364C44.9849 42.6061 46.8333 41.0606 48.0455 39C49.2879 36.9394 49.9091 34.3788 49.9091 31.3182C49.9091 28.2273 49.2879 25.6212 48.0455 23.5C46.8333 21.3788 44.9697 19.7727 42.4545 18.6818C39.9697 17.5606 36.8333 17 33.0455 17H19.7727V94H0.090909ZM50.3636 51.6364L73.5 94H51.7727L29.1364 51.6364H50.3636Z" fill="url(#paint0_linear_4_2)"/>
<defs>
<linearGradient id="paint0_linear_4_2" x1="-8" y1="5" x2="78.5" y2="93" gradientUnits="userSpaceOnUse">
<stop stop-color="#306998"/>
<stop offset="0.48" stop-color="#306998"/>
<stop offset="0.48" stop-color="#306998" stop-opacity="0"/>
<stop offset="0.52" stop-color="#FFD438" stop-opacity="0"/>
<stop offset="0.52" stop-color="#FFD438"/>
<stop offset="1" stop-color="#FFD438"/>
</linearGradient>
</defs>
</svg>
